<svg width="180" height="179" viewBox="0 0 180 179" fill="none" xmlns="http://www.w3.org/2000/svg">
<path fill-rule="evenodd" clip-rule="evenodd" d="M79.4053 130.532L132.489 78.7257L141.952 88.1568L88.868 139.963L79.4053 130.532Z" fill="#CC9831"/>
<path fill-rule="evenodd" clip-rule="evenodd" d="M38.6667 89.9289L91.7508 38.1226L101.214 47.5536L48.1295 99.3599L38.6667 89.9289Z" fill="#CC9831"/>
<path fill-rule="evenodd" clip-rule="evenodd" d="M93.7027 96.5654L129.994 60.815L157.481 88.4601L86.8607 157.86L69.334 140.391L60.3235 149.432L89.2896 178.302L179.716 89.0294L129.901 39.3801L93.7027 75.0633V96.5654Z" fill="#CC9831"/>
<path fill-rule="evenodd" clip-rule="evenodd" d="M109.769 39.7497L120.387 29.5699L90.7189 0L0 89.567L50.2339 139.386L86.013 104.14V82.6425L51.0566 117.046L22.6444 88.727L91.5599 21.024L109.769 39.7497Z" fill="#CC9831"/>
</svg>
